<?xml version="1.0" encoding="utf-8"?>
<!-- Generator: Adobe Illustrator 22.0.1, SVG Export Plug-In . SVG Version: 6.00 Build 0)  -->
<svg version="1.1" xmlns="http://www.w3.org/2000/svg" xmlns:xlink="http://www.w3.org/1999/xlink" x="0px" y="0px"
	 viewBox="0 0 576 576" style="enable-background:new 0 0 576 576;" xml:space="preserve">
<style type="text/css">
	.st0{fill:none;}
	.st1{fill:none;stroke:#000000;stroke-width:6;stroke-miterlimit:10;}
	.st2{fill:none;stroke:#FFFFFF;stroke-width:3;stroke-miterlimit:10;}
	.st3{fill:#A82624;}
	.st4{display:none;}
	.st5{display:inline;fill:#A82624;}
</style>
<g id="Layer_5">
	<line class="st0" x1="101.9" y1="179.8" x2="101.9" y2="179.8"/>
	<polygon class="st1" points="367.6,39.8 206.3,39.8 75.9,134.6 26,288 75.9,441.4 206.3,536.2 367.6,536.2 498.1,441.4 547.9,288 
		498.1,134.6 	"/>
	<circle id="XMLID_3_" cx="287" cy="289" r="230.4"/>
	<g>
		<circle class="st2" cx="287" cy="288" r="207.2"/>
	</g>
	<g>
		<circle class="st2" cx="287" cy="288" r="220.1"/>
	</g>
	<g>
		<path class="st3" d="M144.6,330.7c11.8-0.3,23.5-0.5,35.3-0.7l35.3-0.4c23.5-0.3,47-0.3,70.5-0.4c23.5,0,47,0.1,70.5,0.3l35.3,0.4
			c11.8,0.2,23.5,0.4,35.3,0.7c-11.8,0.3-23.5,0.5-35.3,0.7l-35.3,0.4c-23.5,0.3-47,0.3-70.5,0.3c-23.5,0-47-0.1-70.5-0.4l-35.3-0.4
			C168.1,331.2,156.3,331.1,144.6,330.7z"/>
	</g>
	<g>
		<path class="st3" d="M163.2,337.9c20.4-0.6,40.8-1,61.2-1.2c10.2-0.1,20.4-0.2,30.6-0.3l30.6-0.1l30.6,0.1
			c10.2,0.1,20.4,0.1,30.6,0.2c20.4,0.2,40.8,0.6,61.2,1.2c-20.4,0.6-40.8,1-61.2,1.2c-10.2,0.1-20.4,0.2-30.6,0.2l-30.6,0.1
			l-30.6-0.1c-10.2-0.1-20.4-0.1-30.6-0.3C204,338.8,183.6,338.4,163.2,337.9z"/>
	</g>
	<g>
		<path class="st3" d="M176,345.4c18.3-0.6,36.5-1,54.8-1.2c9.1-0.1,18.3-0.2,27.4-0.3l27.4-0.1l27.4,0.1c9.1,0.1,18.3,0.1,27.4,0.2
			c18.3,0.2,36.5,0.6,54.8,1.2c-18.3,0.6-36.5,1-54.8,1.2c-9.1,0.1-18.3,0.2-27.4,0.2l-27.4,0.1l-27.4-0.1
			c-9.1-0.1-18.3-0.1-27.4-0.3C212.6,346.3,194.3,346,176,345.4z"/>
	</g>
	<g>
		<path class="st3" d="M189.5,353.7c16-0.6,32-1,48.1-1.2c8-0.1,16-0.2,24-0.3l24-0.1l24,0.1c8,0.1,16,0.1,24,0.2
			c16,0.2,32,0.6,48.1,1.2c-16,0.6-32,1-48.1,1.2c-8,0.1-16,0.2-24,0.2l-24,0.1l-24-0.1c-8-0.1-16-0.1-24-0.3
			C221.6,354.7,205.6,354.3,189.5,353.7z"/>
	</g>
	<g>
		<path class="st3" d="M210.6,362.4c12.5-0.6,25-1,37.6-1.2c6.3-0.1,12.5-0.2,18.8-0.3l18.8-0.1l18.8,0.1c6.3,0.1,12.5,0.1,18.8,0.2
			c12.5,0.2,25,0.6,37.6,1.2c-12.5,0.6-25,1-37.6,1.2c-6.3,0.1-12.5,0.2-18.8,0.2l-18.8,0.1l-18.8-0.1c-6.3-0.1-12.5-0.1-18.8-0.3
			C235.6,363.4,223.1,363,210.6,362.4z"/>
	</g>
	<g>
		<g>
			<path class="st3" d="M480.1,221.4c-2.9,0.6-5.8,0.9-8.8,1.2c-2.9,0.2-5.8,0.3-8.8,0.3c-2.9,0-5.8-0.1-8.8-0.3
				c-2.9-0.2-5.8-0.5-8.8-1.2c2.9-0.6,5.8-1,8.8-1.2c2.9-0.2,5.8-0.3,8.8-0.3c2.9,0,5.8,0.1,8.8,0.3
				C474.3,220.5,477.2,220.8,480.1,221.4z"/>
		</g>
		<g>
			<path class="st3" d="M483.1,228.1c-2.9,0.6-5.8,0.9-8.8,1.2c-2.9,0.2-5.8,0.3-8.8,0.3c-2.9,0-5.8-0.1-8.8-0.3
				c-2.9-0.2-5.8-0.5-8.8-1.2c2.9-0.6,5.8-1,8.8-1.2c2.9-0.2,5.8-0.3,8.8-0.3c2.9,0,5.8,0.1,8.8,0.3
				C477.3,227.2,480.2,227.5,483.1,228.1z"/>
		</g>
		<g>
			<path class="st3" d="M484.3,235.7c-2.9,0.6-5.8,0.9-8.8,1.2c-2.9,0.2-5.8,0.3-8.8,0.3c-2.9,0-5.8-0.1-8.8-0.3
				c-2.9-0.2-5.8-0.5-8.8-1.2c2.9-0.6,5.8-1,8.8-1.2c2.9-0.2,5.8-0.3,8.8-0.3c2.9,0,5.8,0.1,8.8,0.3
				C478.5,234.7,481.4,235.1,484.3,235.7z"/>
		</g>
		<g>
			<path class="st3" d="M487.1,244.4c-2.9,0.6-5.8,0.9-8.8,1.2c-2.9,0.2-5.8,0.3-8.8,0.3c-2.9,0-5.8-0.1-8.8-0.3
				c-2.9-0.2-5.8-0.5-8.8-1.2c2.9-0.6,5.8-1,8.8-1.2c2.9-0.2,5.8-0.3,8.8-0.3c2.9,0,5.8,0.1,8.8,0.3
				C481.3,243.5,484.2,243.8,487.1,244.4z"/>
		</g>
		<g>
			<path class="st3" d="M489.3,253.2c-2.9,0.6-5.8,0.9-8.8,1.2c-2.9,0.2-5.8,0.3-8.8,0.3c-2.9,0-5.8-0.1-8.8-0.3
				c-2.9-0.2-5.8-0.5-8.8-1.2c2.9-0.6,5.8-1,8.8-1.2c2.9-0.2,5.8-0.3,8.8-0.3c2.9,0,5.8,0.1,8.8,0.3
				C483.5,252.2,486.4,252.6,489.3,253.2z"/>
		</g>
	</g>
	<g>
		<g>
			<path class="st3" d="M94.4,221.7c2.9-0.6,5.8-0.9,8.8-1.2c2.9-0.2,5.8-0.3,8.8-0.3c2.9,0,5.8,0.1,8.8,0.3
				c2.9,0.2,5.8,0.5,8.8,1.2c-2.9,0.6-5.8,1-8.8,1.2c-2.9,0.2-5.8,0.3-8.8,0.3c-2.9,0-5.8-0.1-8.8-0.3
				C100.3,222.6,97.3,222.3,94.4,221.7z"/>
		</g>
		<g>
			<path class="st3" d="M91.4,228.4c2.9-0.6,5.8-0.9,8.8-1.2c2.9-0.2,5.8-0.3,8.8-0.3c2.9,0,5.8,0.1,8.8,0.3
				c2.9,0.2,5.8,0.5,8.8,1.2c-2.9,0.6-5.8,1-8.8,1.2c-2.9,0.2-5.8,0.3-8.8,0.3c-2.9,0-5.8-0.1-8.8-0.3
				C97.3,229.3,94.3,229,91.4,228.4z"/>
		</g>
		<g>
			<path class="st3" d="M90.3,235.9c2.9-0.6,5.8-0.9,8.8-1.2c2.9-0.2,5.8-0.3,8.8-0.3c2.9,0,5.8,0.1,8.8,0.3
				c2.9,0.2,5.8,0.5,8.8,1.2c-2.9,0.6-5.8,1-8.8,1.2c-2.9,0.2-5.8,0.3-8.8,0.3c-2.9,0-5.8-0.1-8.8-0.3
				C96.1,236.9,93.2,236.6,90.3,235.9z"/>
		</g>
		<g>
			<path class="st3" d="M87.4,244.7c2.9-0.6,5.8-0.9,8.8-1.2c2.9-0.2,5.8-0.3,8.8-0.3c2.9,0,5.8,0.1,8.8,0.3
				c2.9,0.2,5.8,0.5,8.8,1.2c-2.9,0.6-5.8,1-8.8,1.2c-2.9,0.2-5.8,0.3-8.8,0.3c-2.9,0-5.8-0.1-8.8-0.3
				C93.3,245.6,90.3,245.3,87.4,244.7z"/>
		</g>
		<g>
			<path class="st3" d="M85.3,253.4c2.9-0.6,5.8-0.9,8.8-1.2c2.9-0.2,5.8-0.3,8.8-0.3c2.9,0,5.8,0.1,8.8,0.3
				c2.9,0.2,5.8,0.5,8.8,1.2c-2.9,0.6-5.8,1-8.8,1.2c-2.9,0.2-5.8,0.3-8.8,0.3c-2.9,0-5.8-0.1-8.8-0.3
				C91.1,254.4,88.2,254.1,85.3,253.4z"/>
		</g>
	</g>
	<line class="st0" x1="93.8" y1="179.7" x2="93.8" y2="179.7"/>
	<g>
		<circle class="st3" cx="287" cy="51.5" r="5.9"/>
		<circle class="st3" cx="245.8" cy="55.1" r="5.9"/>
		<circle class="st3" cx="205.8" cy="65.9" r="5.9"/>
		<circle class="st3" cx="168.3" cy="83.3" r="5.9"/>
		<circle class="st3" cx="134.4" cy="107.1" r="5.9"/>
		<circle class="st3" cx="105.1" cy="136.3" r="5.9"/>
		<circle class="st3" cx="81.4" cy="170.2" r="5.9"/>
		<circle class="st3" cx="63.9" cy="207.8" r="5.9"/>
		<circle class="st3" cx="53.2" cy="247.7" r="5.9"/>
		<circle class="st3" cx="49.6" cy="289" r="5.9"/>
		<circle class="st3" cx="53.2" cy="330.2" r="5.9"/>
		<circle class="st3" cx="63.9" cy="370.2" r="5.9"/>
		<circle class="st3" cx="81.4" cy="407.7" r="5.9"/>
		<circle class="st3" cx="105.1" cy="441.6" r="5.9"/>
		<circle class="st3" cx="134.4" cy="470.8" r="5.9"/>
		<circle class="st3" cx="168.3" cy="494.6" r="5.9"/>
		<circle class="st3" cx="205.8" cy="512.1" r="5.9"/>
		<circle class="st3" cx="245.8" cy="522.8" r="5.9"/>
		<circle class="st3" cx="287" cy="526.4" r="5.9"/>
		<circle class="st3" cx="328.2" cy="522.8" r="5.9"/>
		<circle class="st3" cx="368.2" cy="512.1" r="5.9"/>
		<circle class="st3" cx="405.7" cy="494.6" r="5.9"/>
		<circle class="st3" cx="439.6" cy="470.8" r="5.9"/>
		<circle class="st3" cx="468.9" cy="441.6" r="5.9"/>
		<circle class="st3" cx="492.6" cy="407.7" r="5.9"/>
		<circle class="st3" cx="510.1" cy="370.2" r="5.9"/>
		<circle class="st3" cx="520.8" cy="330.2" r="5.9"/>
		<circle class="st3" cx="524.4" cy="289" r="5.9"/>
		<circle class="st3" cx="520.8" cy="247.7" r="5.9"/>
		<circle class="st3" cx="510.1" cy="207.8" r="5.9"/>
		<circle class="st3" cx="492.6" cy="170.2" r="5.9"/>
		<circle class="st3" cx="468.9" cy="136.3" r="5.9"/>
		<circle class="st3" cx="439.6" cy="107.1" r="5.9"/>
		<circle class="st3" cx="405.7" cy="83.3" r="5.9"/>
		<circle class="st3" cx="368.2" cy="65.9" r="5.9"/>
		<circle class="st3" cx="328.2" cy="55.1" r="5.9"/>
	</g>
	<g class="st4">
		<path class="st5" d="M216.7,211.9l7.2,22h-2.1c-2-3.9-4.1-7.2-6.3-10c-2.2-2.8-4.5-5.1-6.9-6.8c-2.4-1.7-5-3-7.7-3.8
			c-2.7-0.8-5.8-1.2-9.2-1.2c-4.8,0-9.4,0.9-13.5,2.8c-4.2,1.8-7.8,4.5-10.9,7.8c-3.1,3.4-5.5,7.3-7.2,11.9
			c-1.7,4.6-2.6,9.5-2.6,14.8c0,8,1.6,15.3,4.7,21.9c3.2,6.6,7.5,11.8,13,15.5s11.6,5.6,18.4,5.6c4.6,0,9-0.9,13-2.7
			c4-1.8,7.6-4.4,10.8-7.8s5.9-7.7,8.3-12.9h2.5c-3.4,9.1-8.6,16-15.6,20.7c-6.9,4.7-15.4,7.1-25.4,7.1c-11.7,0-21.4-3.2-29.1-9.5
			c-3.3-2.8-6-5.9-8.3-9.4c-2.2-3.5-4-7.3-5.1-11.5s-1.8-8.4-1.8-12.8c0-8.2,2.1-15.6,6.2-22.4c4.1-6.8,9.8-12.1,17.1-16
			c7.2-3.9,15.3-5.8,24-5.8c3.7,0,8.6,0.5,14.6,1.6c4.2,0.8,7.2,1.2,9.1,1.2C214.8,212.1,215.7,212.1,216.7,211.9z M185,294.7
			c-5.2-1.4-9.9-3.5-14.2-6.2c-4.2-2.7-7.8-5.8-10.6-9.5c-2.8-3.7-5-7.9-6.4-12.6c-1.5-4.7-2.2-9.8-2.2-15.4c0-4.1,0.4-7.8,1.1-11.1
			c0.7-3.3,1.9-6.4,3.6-9.4c1.7-3,3.8-5.7,6.3-8.3c2.5-2.5,5.6-5,9.3-7.5c-4.3,1.9-8.1,4.2-11.4,6.9s-6.1,5.6-8.3,8.9
			c-2.3,3.3-4,6.9-5.1,10.8c-1.1,3.9-1.7,8-1.7,12.3c0,4.6,0.7,9,2,13.2s3.2,8,5.6,11.5c2.4,3.5,5.4,6.4,8.8,8.9
			c3.4,2.4,7,4.2,10.7,5.3S180.3,294.4,185,294.7z"/>
		<path class="st5" d="M272.9,211v1.9c-4.9,0.7-8.5,2.4-10.7,5c-1,1.2-1.7,2.7-2.1,4.4c-0.4,1.8-0.6,4.2-0.6,7.4v47
			c0,3.1,0.2,5.5,0.5,7.3s1,3.2,1.9,4.4c1.8,2.3,5.4,3.5,10.5,3.5h1.3c2.8,0,5.4-0.4,8.1-1.3c2.6-0.8,5.3-2.2,8-4.1s5.5-4.2,8.3-7.1
			c2.8-2.8,5.7-6.2,8.7-10h1.9l-7.4,25.6h-68.1v-1.9c4.4-0.7,7.7-2.4,9.7-5.1c1.6-2,2.3-5.9,2.3-11.8v-46.5c0-3.7-0.2-6.4-0.6-8.1
			c-0.4-1.7-1.2-3.1-2.3-4.3c-2.1-2.3-5.1-3.8-9.1-4.4V211H272.9z M241.9,291.9h18l-2.4-1.8c-1.4-1-2.3-1.8-2.7-2.5
			c-0.4-0.6-0.6-1.5-0.6-2.8c0-0.7,0-1.1,0-1.3s0-0.5,0-0.7v-1v-57.6v-1c0-0.2,0-0.5,0-0.7s0-0.7,0-1.3c0-1.2,0.2-2.2,0.6-2.9
			s1.3-1.5,2.6-2.4l3.5-2.6h-20.1l3.4,2.6c1.4,1,2.3,1.8,2.7,2.4c0.4,0.6,0.6,1.5,0.6,2.8c0,0.7,0.1,1.4,0.1,2v1v57.6v1
			c0,0.7,0,1.3-0.1,2c0,1.3-0.2,2.2-0.6,2.8s-1.3,1.4-2.7,2.4L241.9,291.9z M297,291.9l3.3-11.5c-4,4.8-8.8,8.6-14.3,11.5H297z"/>
		<path class="st5" d="M366.4,291.3h-1.5l-33.6-66.9l-3.6,41.7c-0.2,2.3-0.3,4.5-0.3,6.5c0,6,1.2,10.6,3.7,13.9
			c2.4,3.2,6.4,5.5,11.9,6.7v1.9h-33.6v-1.9c3-1.1,5.6-2.7,7.9-4.8c2.3-2.2,4.1-4.7,5.3-7.5c1.3-3.2,2.3-8.2,2.9-15.1l3.9-44.4
			c-1.6-2.9-3.3-5-5.4-6.3c-2-1.3-4.6-2-7.6-2.1V211H346c-0.2,0.4-0.3,0.7-0.3,0.8c-0.8,1.9-1.2,3.4-1.2,4.4c0,2,1,5,3.1,9.2
			l23.8,47.3l19.7-46c1.6-3.7,2.3-6.5,2.3-8.4c0-2-0.8-4.4-2.5-7.3h29.6v1.9c-4.1,0.6-7.1,1.8-8.9,3.6c-1.8,1.8-2.8,4.5-2.8,8
			c0,1.1,0.1,2.2,0.2,3.1l0.2,1.5l5.2,45.7c0.1,0.6,0.2,1.1,0.2,1.6c0.1,0.5,0.3,1.7,0.6,3.9c0.6,4,1.8,6.9,3.7,8.9
			c1.8,1.9,4.6,3.2,8.5,3.9v1.9h-39.2v-1.9c4.3-1.1,7.5-2.5,9.5-4.2s3-4,3-6.6c0-1-0.1-2.7-0.4-5l-6-52.6L366.4,291.3z M330.3,291.9
			c-2-2.1-3.3-3.9-4-5.3c-0.7-1.4-1.3-3.1-1.6-5.3c-1,2.5-2.1,4.4-3.3,5.9c-1.2,1.5-2.9,3-5.1,4.6H330.3z M365.4,287.7l3.4-8
			l-28.3-56.4c-1.4-2.9-2.1-5-2.1-6.3c0-1.3,0.3-2.5,1-3.6h-14.2c2.3,1.6,4,3.4,5.2,5.2c1.6,2.3,2.9,4.7,4,7L365.4,287.7z
			 M397,291.9h18.9l-3.2-2.6c-1.4-1.1-2.3-3.5-2.8-7.2l-6.8-58.8c-0.1-1.1-0.1-1.8-0.1-2.2c0-0.9,0.2-1.8,0.6-2.4
			c0.4-0.7,1.3-1.5,2.5-2.6l3.5-2.8h-14.3l7.8,67.9l0.2,1.4c0.1,1,0.1,1.7,0.1,2.2c0,1-0.2,1.8-0.6,2.4s-1.3,1.4-2.6,2.3L397,291.9z
			"/>
	</g>
	<g>
		<path class="st3" d="M210.4,409.8l-4.3-16.8h2.3l2,8.5c0.5,2.1,0.9,4.2,1.2,5.8h0.1c0.3-1.7,0.8-3.7,1.4-5.8l2.2-8.5h2.3l2,8.5
			c0.5,2,0.9,4,1.2,5.8h0.1c0.3-1.8,0.8-3.7,1.3-5.8l2.2-8.5h2.2l-4.8,16.8h-2.3l-2.1-8.8c-0.5-2.1-0.9-3.8-1.1-5.5h0
			c-0.3,1.7-0.7,3.3-1.3,5.5l-2.4,8.8H210.4z"/>
		<path class="st3" d="M229.1,404.1c0,3,1.9,4.2,4.1,4.2c1.6,0,2.5-0.3,3.3-0.6l0.4,1.6c-0.8,0.4-2.1,0.8-4,0.8
			c-3.7,0-5.9-2.4-5.9-6.1c0-3.6,2.1-6.5,5.7-6.5c3.9,0,5,3.5,5,5.7c0,0.4,0,0.8-0.1,1H229.1z M235.6,402.6c0-1.4-0.6-3.6-3-3.6
			c-2.2,0-3.2,2-3.4,3.6H235.6z"/>
		<path class="st3" d="M240.3,409.8c0-0.8,0.1-2,0.1-3.1V392h2.2v7.6h0c0.8-1.3,2.2-2.2,4.1-2.2c3,0,5.1,2.5,5.1,6.2
			c0,4.3-2.7,6.5-5.4,6.5c-1.7,0-3.1-0.7-4-2.3h-0.1l-0.1,2H240.3z M242.6,404.9c0,0.3,0,0.5,0.1,0.8c0.4,1.5,1.7,2.6,3.3,2.6
			c2.3,0,3.7-1.9,3.7-4.6c0-2.4-1.2-4.5-3.6-4.5c-1.5,0-2.9,1-3.3,2.7c0,0.2-0.1,0.5-0.1,0.9V404.9z"/>
		<path class="st3" d="M260,393.2c1.3-0.2,2.9-0.3,4.6-0.3c3.1,0,5.3,0.7,6.8,2.1c1.5,1.4,2.4,3.3,2.4,6c0,2.7-0.8,5-2.4,6.5
			c-1.6,1.6-4.2,2.4-7.4,2.4c-1.5,0-2.8-0.1-3.9-0.2V393.2z M262.2,408.1c0.5,0.1,1.3,0.1,2.2,0.1c4.6,0,7.2-2.6,7.2-7.1
			c0-4-2.2-6.5-6.8-6.5c-1.1,0-2,0.1-2.5,0.2V408.1z"/>
		<path class="st3" d="M277.9,404.1c0,3,1.9,4.2,4.1,4.2c1.6,0,2.5-0.3,3.3-0.6l0.4,1.6c-0.8,0.4-2.1,0.8-4,0.8
			c-3.7,0-5.9-2.4-5.9-6.1c0-3.6,2.1-6.5,5.7-6.5c3.9,0,5,3.5,5,5.7c0,0.4,0,0.8-0.1,1H277.9z M284.4,402.6c0-1.4-0.6-3.6-3-3.6
			c-2.2,0-3.2,2-3.4,3.6H284.4z"/>
		<path class="st3" d="M290.1,397.7l2.4,6.8c0.4,1.1,0.7,2.1,1,3.1h0.1c0.3-1,0.6-2,1-3.1l2.4-6.8h2.3l-4.7,12.1h-2.1l-4.6-12.1
			H290.1z"/>
		<path class="st3" d="M302.2,404.1c0,3,1.9,4.2,4.1,4.2c1.6,0,2.5-0.3,3.3-0.6l0.4,1.6c-0.8,0.4-2.1,0.8-4,0.8
			c-3.7,0-5.9-2.4-5.9-6.1c0-3.6,2.1-6.5,5.7-6.5c3.9,0,5,3.5,5,5.7c0,0.4,0,0.8-0.1,1H302.2z M308.7,402.6c0-1.4-0.6-3.6-3-3.6
			c-2.2,0-3.2,2-3.4,3.6H308.7z"/>
		<path class="st3" d="M313.5,392h2.2v17.7h-2.2V392z"/>
		<path class="st3" d="M330.4,403.6c0,4.5-3.1,6.4-6,6.4c-3.3,0-5.8-2.4-5.8-6.2c0-4,2.6-6.4,6-6.4
			C328,397.4,330.4,399.9,330.4,403.6z M320.8,403.8c0,2.6,1.5,4.6,3.7,4.6c2.1,0,3.7-2,3.7-4.7c0-2-1-4.6-3.6-4.6
			S320.8,401.5,320.8,403.8z"/>
		<path class="st3" d="M333.1,401.6c0-1.5,0-2.8-0.1-3.9h2l0.1,2.1h0c0.9-1.5,2.3-2.3,4.3-2.3c2.9,0,5.1,2.5,5.1,6.1
			c0,4.3-2.6,6.5-5.5,6.5c-1.6,0-3-0.7-3.7-1.9h0v6.6h-2.2V401.6z M335.3,404.9c0,0.3,0,0.6,0.1,0.9c0.4,1.5,1.7,2.6,3.3,2.6
			c2.3,0,3.7-1.9,3.7-4.7c0-2.4-1.3-4.5-3.6-4.5c-1.5,0-2.9,1.1-3.3,2.7c-0.1,0.3-0.1,0.6-0.1,0.9V404.9z"/>
		<path class="st3" d="M348.6,404.1c0,3,2,4.2,4.1,4.2c1.6,0,2.5-0.3,3.3-0.6l0.4,1.6c-0.8,0.4-2.1,0.8-4,0.8
			c-3.7,0-5.9-2.4-5.9-6.1c0-3.6,2.1-6.5,5.7-6.5c3.9,0,5,3.5,5,5.7c0,0.4,0,0.8-0.1,1H348.6z M355,402.6c0-1.4-0.6-3.6-3-3.6
			c-2.2,0-3.2,2-3.4,3.6H355z"/>
		<path class="st3" d="M359.9,401.5c0-1.4,0-2.6-0.1-3.8h1.9l0.1,2.4h0.1c0.5-1.6,1.9-2.6,3.3-2.6c0.2,0,0.4,0,0.6,0.1v2.1
			c-0.2,0-0.5-0.1-0.8-0.1c-1.5,0-2.6,1.2-2.9,2.8c-0.1,0.3-0.1,0.6-0.1,1v6.4h-2.2V401.5z"/>
	</g>
</g>
<g id="Layer_3">
	<g>
		<path class="st3" d="M195.5,293c-4.2-6.2-6.3-14.8-6.3-25.9v-44.8c0-11.3,2.1-20,6.3-26.1c4.2-6.1,11.6-9.1,22.2-9.1
			c9.6,0,16.5,2.7,20.6,8.2c4.1,5.5,6.1,13.4,6.1,23.8v6.8h-10v-6.5c0-5.4-0.4-9.8-1.3-13.1c-0.8-3.4-2.5-6-4.9-7.9
			c-2.4-1.9-5.9-2.8-10.4-2.8c-4.9,0-8.7,1-11.3,3.1c-2.6,2-4.4,4.8-5.3,8.4c-0.9,3.6-1.4,8.1-1.4,13.7v48c0,8.7,1.3,15.1,4,19.1
			c2.6,4,7.3,6,14,6c6.6,0,11-2,13.2-6.1c2.2-4,3.3-10.2,3.3-18.4V262h10v6.7c0,10.8-2,19.1-6,24.9c-4,5.8-10.9,8.8-20.7,8.8
			C207.1,302.3,199.7,299.2,195.5,293z"/>
		<path class="st3" d="M261,188.2h10.6V293h32v7.9H261V188.2z"/>
		<path class="st3" d="M315.9,188.2h10.6l22.3,97.8l22.7-97.8H382l2.8,112.7H376l-2.2-89.7l-21.6,89.7h-6.8l-21.3-89.6l-2.2,89.6
			h-8.8L315.9,188.2z"/>
	</g>
</g>
</svg>
